PathFileType	4	(X/Y/Z)	E:\Qualisys_Data\Carbon_Farble_Plate\Data\Amateur_Runner\S2\T3\S2T3V22_c3d.trc
DataRate	CameraRate	NumFrames	NumMarkers	Units	OrigDataRate	OrigDataStartFrame	OrigNumFrames
200.000000	200.000000	5	39	mm	200.000000	0	316
Frame#	Time	LSHO			RSHO			LICST			RICST			LASIS			LHEEL			RASIS			LTROC			RTROC			SACR			LTH1			LSK4			LTH2			LTH3			RHM5			LSK2			LTH4			RTH1			LTOE			RTH2			RTH3			RTH4			LLEP			RLEP			LSK1			LSK3			RSK1			LHM5			RSK2			LFT1			RSK3			RSK4			LLME			RLME			RTOE			RHEEL			RFT1			RFT2			LFT2			
		X1	Y1	Z1	X2	Y2	Z2	X3	Y3	Z3	X4	Y4	Z4	X5	Y5	Z5	X6	Y6	Z6	X7	Y7	Z7	X8	Y8	Z8	X9	Y9	Z9	X10	Y10	Z10	X11	Y11	Z11	X12	Y12	Z12	X13	Y13	Z13	X14	Y14	Z14	X15	Y15	Z15	X16	Y16	Z16	X17	Y17	Z17	X18	Y18	Z18	X19	Y19	Z19	X20	Y20	Z20	X21	Y21	Z21	X22	Y22	Z22	X23	Y23	Z23	X24	Y24	Z24	X25	Y25	Z25	X26	Y26	Z26	X27	Y27	Z27	X28	Y28	Z28	X29	Y29	Z29	X30	Y30	Z30	X31	Y31	Z31	X32	Y32	Z32	X33	Y33	Z33	X34	Y34	Z34	X35	Y35	Z35	X36	Y36	Z36	X37	Y37	Z37	X38	Y38	Z38	X39	Y39	Z39	

1	0	-3356.28857421875	1514.94287109375	-397.2434692382812	-3397.866455078125	1500.656127929688	-98.64014434814453	-3432.788330078125	1053.988891601562	-395.0664367675781	-3412.66943359375	1044.385620117188	-98.98746490478516	-3381.0732421875	998.4169921875	-385.22314453125	-3975.13232421875	464.6048278808594	-273.2820434570312	-3355.5478515625	999.0720825195312	-131.3144378662109	-3530.5341796875	954.5172119140625	-394.4515380859375	-3484.510009765625	940.3055419921875	-82.07030487060547	-3517.69482421875	1093.84814453125	-245.3316040039062	-3501.459228515625	693.920166015625	-404.1070251464844	-3840.212646484375	523.0361328125	-365.8010559082031	-3578.08544921875	726.0140991210938	-402.2570190429688	-3541.9150390625	600.2763671875	-389.84912109375	-3041.375	194.0943450927734	-95.90628814697266	-3750.87890625	564.5057983398438	-386.762451171875	-3618.265625	635.1822509765625	-378.968994140625	-3262.860595703125	712.8726196289062	-76.70381927490234	-4013.621826171875	220.7741241455078	-321.5411987304688	-3337.62890625	685.9405517578125	-71.941650390625	-3232.750244140625	618.7005004882812	-105.8685684204102	-3306.7119140625	594.7716064453125	-94.26438903808594	-3609.750732421875	579.744384765625	-386.1192626953125	-3264.68798828125	576.0944213867188	-97.38312530517578	-3718.949951171875	492.7342224121094	-388.9306640625	-3810.80859375	452.5751953125	-375.7156372070312	-3201.348876953125	469.073974609375	-95.27553558349609	-4042.967529296875	292.5121154785156	-359.5553894042969	-3278.81005859375	452.1099853515625	-78.61715698242188	-3993.65771484375	451.3671264648438	-236.9994964599609	-3180.048095703125	369.0369567871094	-101.3855590820312	-3258.121826171875	356.0789489746094	-88.19410705566406	-3980.19091796875	413.6902465820312	-335.39306640625	-3175.18994140625	176.6399536132812	-118.5579605102539	-2996.283203125	243.0718078613281	-152.6487274169922	-3219.436767578125	127.4123992919922	-173.6085357666016	-3198.136474609375	114.1650314331055	-202.6585845947266	-3204.223876953125	106.8259658813477	-153.7723693847656	-4010.104248046875	466.5784912109375	-285.0163269042969
2	0.005	-3336.75	1513.224975585938	-397.2333374023438	-3378.623046875	1497.568603515625	-97.82785034179688	-3412.88671875	1051.587646484375	-395.2868957519531	-3393.9111328125	1042.18505859375	-99.15829467773438	-3361.167724609375	996.8094482421876	-385.6997985839844	-3951.685791015625	469.5469665527344	-271.3196411132812	-3336.153076171875	997.4961547851562	-131.6972351074219	-3509.88671875	951.7786865234376	-394.4828491210938	-3464.214599609375	938.4993896484376	-82.59761047363281	-3497.350341796875	1091.824096679688	-245.7881622314453	-3479.122314453125	691.9802856445312	-405.3580627441406	-3816.718017578125	525.8900756835938	-365.4158935546875	-3556.40380859375	723.1174926757812	-402.9416198730469	-3519.08740234375	597.6527709960938	-391.488037109375	-3020.649658203125	191.5724182128906	-95.93213653564452	-3726.611572265625	564.3052978515625	-387.4370422363281	-3594.408935546875	630.9295654296875	-379.5549926757812	-3245.525146484375	708.69921875	-75.99168395996094	-3999.667724609375	229.4578247070312	-322.7294921875	-3321.151611328125	680.9525756835938	-70.25962829589844	-3217.021484375	614.1897583007812	-106.0693130493164	-3288.126220703125	592.1509399414062	-91.47054290771484	-3586.9130859375	576.9047241210938	-387.6112060546875	-3249.083984375	571.875	-97.22370147705078	-3697.404541015625	491.6629333496094	-389.7735900878906	-3788.87451171875	453.5094299316406	-375.5212707519531	-3184.719482421875	465.5111083984375	-95.59000396728516	-4025.3984375	301.2126159667969	-359.591552734375	-3260.455078125	448.9539184570312	-79.18164825439453	-3970.490966796875	457.6341857910156	-236.6492919921875	-3160.932373046875	367.1084289550781	-102.9237442016602	-3239.347900390625	352.6723022460938	-89.17317199707031	-3959.9462890625	421.04833984375	-334.5262145996094	-3153.54150390625	173.6293334960938	-119.3622970581055	-2976.58837890625	242.3009948730469	-154.3753814697266	-3198.604736328125	123.7791595458984	-174.0348815917969	-3177.66796875	111.0061645507812	-204.2211151123047	-3183.0087890625	103.9581451416016	-154.9198303222656	-3986.2109375	474.3446960449219	-282.0321655273438
3	0.01	-3315.18359375	1510.888793945312	-396.1321716308594	-3357.8984375	1494.843872070312	-96.24652099609376	-3392.187255859375	1049.110717773438	-395.1846313476562	-3373.429443359375	1040.15087890625	-99.45301055908205	-3341.466796875	994.4850463867188	-385.4917297363281	-3930.051025390625	477.0312194824219	-271.3330993652344	-3316.923583984375	995.4453125	-132.3582000732422	-3489.932861328125	949.8643798828124	-394.8410034179688	-3445.26220703125	936.2975463867188	-82.84668731689453	-3477.095947265625	1089.550537109375	-246.0167083740234	-3456.638427734375	688.321533203125	-406.0688781738281	-3793.93359375	528.5408325195312	-365.6429748535156	-3534.318359375	718.7891845703125	-403.9864196777344	-3495.363037109375	594.3046875	-392.7938842773438	-3002.13623046875	190.3083801269531	-97.91615295410156	-3702.364501953125	563.76806640625	-388.0227355957031	-3572.054443359375	626.6919555664062	-380.3961486816406	-3228.065673828125	704.2431030273438	-75.5999755859375	-3983.728271484375	238.3439025878906	-325.3951721191406	-3304.024169921875	676.3333740234375	-68.80200958251953	-3199.21630859375	610.9805297851562	-105.95361328125	-3271.670654296875	586.0963134765625	-93.93473052978516	-3562.817138671875	572.7739868164062	-388.5343627929688	-3230.863037109375	568.8689575195312	-97.27859497070312	-3674.62158203125	490.2951965332031	-390.9402160644531	-3768.592041015625	455.7057189941406	-376.3927612304688	-3166.39892578125	463.0052185058594	-96.37631225585938	-4008.60009765625	311.6016235351562	-359.8071899414062	-3241.816162109375	444.6656188964844	-79.8399429321289	-3946.74072265625	462.5218505859375	-238.0003204345703	-3142.313720703125	363.9036865234375	-103.5358505249023	-3220.38330078125	349.4091796875	-89.69532775878906	-3938.713623046875	427.6357116699219	-334.3366088867188	-3134.639892578125	170.3282318115234	-120.6138000488281	-2957.88623046875	239.9769592285156	-154.8839263916016	-3186.6357421875	120.8814392089844	-174.7035980224609	-3157.031005859375	107.6554489135742	-205.3946380615234	-3170.254638671875	99.15435028076172	-153.799560546875	-3963.978515625	482.1642761230469	-281.4651184082031
4	0.015	-3294.888916015625	1508.540649414062	-395.4001159667969	-3338.969970703125	1491.254150390625	-95.71518707275392	-3373.062744140625	1046.821899414062	-395.515380859375	-3353.331787109375	1038.132080078125	-99.583984375	-3321.300048828125	992.6825561523438	-386.1301879882812	-3905.72802734375	482.1908569335938	-269.6996459960938	-3297.80517578125	992.499755859375	-132.4636077880859	-3469.048583984375	946.5415649414062	-394.9501647949219	-3426.360107421875	933.9644775390624	-83.37752532958984	-3458.37451171875	1087.046875	-246.9147033691406	-3434.63134765625	686.1915893554688	-407.6050109863281	-3769.6357421875	529.73095703125	-365.8817138671875	-3512.329345703125	714.5460815429688	-404.656494140625	-3471.490966796875	590.0980224609375	-393.8658142089844	-2985.1064453125	187.2466430664062	-98.32747650146484	-3677.275390625	562.9292602539062	-388.6868591308594	-3548.40234375	623.16845703125	-379.919189453125	-3211.654541015625	700.457275390625	-74.89026641845703	-3968.8818359375	246.0326232910156	-325.1109924316406	-3285.610595703125	671.7886962890625	-67.37580871582031	-3181.380126953125	607.4605102539062	-106.0745315551758	-3254.963623046875	582.3099975585938	-95.17658996582033	-3538.8837890625	569.1456909179688	-389.7302551269531	-3213.838134765625	565.2847290039062	-97.83677673339844	-3652.530029296875	489.1304016113281	-391.6475830078125	-3746.298095703125	455.9825134277344	-376.7630920410156	-3147.98779296875	459.0195922851562	-96.61539459228516	-3990.330078125	320.144775390625	-360.4391784667969	-3224.426025390625	441.92822265625	-80.05245208740234	-3924.672119140625	471.2418212890625	-234.9846801757812	-3125.372802734375	360.2493896484375	-104.315299987793	-3201.354248046875	345.721923828125	-90.40885925292967	-3917.9052734375	434.8843994140625	-333.8435363769531	-3117.015625	167.7007141113281	-122.9763031005859	-2940.408935546875	237.5744781494141	-155.1719360351562	-3168.9189453125	117.8083114624023	-177.1007385253906	-3139.2529296875	105.2882537841797	-208.4493560791016	-3153.802001953125	98.3842544555664	-156.9047393798828	-3941.811279296875	488.9686279296875	-281.27734375
5	0.02	-3274.66552734375	1505.41357421875	-394.5111694335938	-3318.61669921875	1487.299560546875	-94.06475067138672	-3353.40283203125	1044.452514648438	-396.1011962890625	-3335.298828125	1035.455078125	-99.30670166015624	-3301.386474609375	990.1356201171876	-386.4774780273438	-3881.83544921875	487.974609375	-269.3674926757812	-3278.093017578125	990.4022827148438	-131.6939544677734	-3448.855224609375	943.3468627929688	-395.1524963378906	-3406.898681640625	931.5897216796876	-83.23851013183594	-3438.20654296875	1084.107055664062	-247.1836700439453	-3411.943115234375	682.7235717773438	-408.5871276855469	-3745.398681640625	531.1605224609375	-366.5019836425781	-3490.52001953125	710.6009521484375	-405.5629272460938	-3446.84765625	586.525146484375	-394.8937683105469	-2969.6201171875	184.423095703125	-98.92836761474608	-3652.8544921875	561.8209228515625	-389.9758605957031	-3524.582275390625	617.9942016601562	-380.7372436523438	-3193.686767578125	697.1517944335938	-74.4207763671875	-3951.099609375	254.6384124755859	-326.5453796386719	-3269.322509765625	667.4886474609375	-66.98201751708984	-3164.7236328125	604.1349487304688	-107.0995025634766	-3237.38623046875	578.4647216796875	-95.6778564453125	-3514.814208984375	564.9827270507812	-391.1768798828125	-3195.324951171875	561.7908935546875	-97.89816284179688	-3629.577392578125	487.0796508789062	-392.2730407714844	-3723.7734375	457.1139831542969	-376.3651733398438	-3131.143798828125	455.6419067382812	-97.4982452392578	-3971.361083984375	328.7004089355469	-360.9778442382812	-3207.107177734375	437.2698059082031	-80.32762145996094	-3900.9921875	477.0796203613281	-233.7378387451172	-3106.995361328125	356.2562866210938	-105.5960998535156	-3185.70703125	342.5343017578125	-91.6074447631836	-3895.8779296875	441.6658935546875	-333.4329223632812	-3099.840087890625	163.6207580566406	-124.4845352172852	-2924.124267578125	234.3374633789062	-155.3350830078125	-3144.559814453125	113.8646011352539	-180.4458770751953	-3122.10107421875	102.1981430053711	-210.4373474121094	-3128.652587890625	93.04488372802734	-161.3914031982422	-3911.44775390625	497.7176513671875	-278.2777099609375
